<?xml version="1.0" encoding="UTF-8"?>
<svg version="1.1" xmlns="http://www.w3.org/2000/svg" width="1024" height="1024">
<path d="M0 0 C337.92 0 675.84 0 1024 0 C1024 337.92 1024 675.84 1024 1024 C686.08 1024 348.16 1024 0 1024 C0 686.08 0 348.16 0 0 Z " fill="#FDFEFE" transform="translate(0,0)"/>
<path d="M0 0 C16.52719707 5.72095283 28.5772465 15.65749557 36.7578125 31.21875 C38.87591158 35.68006015 40.78269038 39.76417797 41.734375 44.62890625 C42.67719072 48.15345684 42.67719072 48.15345684 46.0546875 49.29296875 C47.31539062 49.54691406 48.57609375 49.80085938 49.875 50.0625 C51.24799774 50.37103146 52.62039133 50.68226302 53.9921875 50.99609375 C54.6737793 51.14288574 55.35537109 51.28967773 56.05761719 51.44091797 C86.52936116 58.25071696 114.02630209 83.0216324 130.41796875 108.671875 C139.14363828 122.69917525 145.5479704 136.96013379 150 152.875 C150.22445801 153.6479541 150.44891602 154.4209082 150.68017578 155.21728516 C156.55047832 176.17106652 157.10051863 203.16515399 150 223.875 C149.77505859 224.53580566 149.55011719 225.19661133 149.31835938 225.87744141 C145.04685534 238.03004689 139.34872712 249.04612006 131 258.875 C130.27039063 259.75027344 129.54078125 260.62554688 128.7890625 261.52734375 C121.46821128 269.97356854 112.86832591 277.50167071 103 282.875 C102.34 282.875 101.68 282.875 101 282.875 C111.11085773 296.2396178 123.42510757 306.65189522 140 310.875 C140.63164063 311.07738281 141.26328125 311.27976562 141.9140625 311.48828125 C159.63634786 316.51757845 178.08217395 311.97735582 193.796875 303.51953125 C197 301.875 197 301.875 199 301.875 C199.61230878 319.72427181 198.98846601 335.64005762 194 352.875 C193.68933594 354.06609375 193.37867188 355.2571875 193.05859375 356.484375 C187.44777329 376.7135214 176.81855742 395.18072774 163 410.875 C162.20851563 411.79925781 161.41703125 412.72351563 160.6015625 413.67578125 C154.92123788 420.1535016 148.86090937 425.67222647 142 430.875 C141.22269531 431.46796875 140.44539063 432.0609375 139.64453125 432.671875 C119.83260073 447.14088958 92.90044827 461.15324788 68 461.875 C68 464.845 68 467.815 68 470.875 C68.79092041 470.86412354 69.58184082 470.85324707 70.39672852 470.84204102 C79.78559774 470.77165969 89.10818848 471.14636138 98.47973633 471.67456055 C100.95823995 471.81366401 103.4370656 471.94529033 105.91601562 472.07617188 C107.51564908 472.16362316 109.11525943 472.25149838 110.71484375 472.33984375 C111.44412582 472.37843002 112.1734079 472.4170163 112.92478943 472.45677185 C117.32948158 472.71004492 121.63765969 473.22925556 126 473.875 C128.54116156 473.97252859 131.08293656 474.05480495 133.625 474.125 C140.72410119 474.44019561 147.46222256 475.62584908 154.375 477.25 C155.28459473 477.45915039 156.19418945 477.66830078 157.13134766 477.88378906 C157.9826123 478.09487305 158.83387695 478.30595703 159.7109375 478.5234375 C160.46681152 478.71083496 161.22268555 478.89823242 162.00146484 479.09130859 C164.25708305 479.97581072 165.4222941 481.06217028 167 482.875 C166 485.875 166 485.875 163.31567383 487.49389648 C160.08905277 488.83790615 157.40030439 489.50391658 153.94921875 489.97265625 C152.20922607 490.21363037 152.20922607 490.21363037 150.43408203 490.45947266 C149.19770996 490.61722168 147.96133789 490.7749707 146.6875 490.9375 C144.74786377 491.19345947 144.74786377 491.19345947 142.76904297 491.45458984 C132.77671448 492.74885183 122.77217041 493.73226763 112.71850586 494.40332031 C108.51456288 494.68947174 104.31851271 495.01696487 100.12158203 495.39135742 C73.60044237 497.59521775 46.98555022 497.14356751 20.39560306 497.07559586 C14.9115349 497.06224042 9.42750671 497.05989714 3.94342446 497.0605461 C-2.08525526 497.0611623 -8.11391041 497.05589522 -14.14258575 497.04775429 C-16.66676974 497.04461003 -19.19095546 497.04261035 -21.7151413 497.04186058 C-33.15225064 497.03473018 -44.57611165 497.00385041 -56.00097656 496.42700195 C-56.77864254 496.38841411 -57.55630852 496.34982626 -58.35754013 496.31006908 C-61.44618776 496.1305334 -64.04957751 495.85847416 -67 494.875 C-69.181768 494.6901412 -71.36782434 494.55446339 -73.5546875 494.4453125 C-74.89569756 494.37371324 -76.23667968 494.30158928 -77.57763672 494.22900391 C-78.27951111 494.19204407 -78.9813855 494.15508423 -79.70452881 494.11700439 C-118.40741042 492.03063382 -118.40741042 492.03063382 -130 485.875 C-130 484.555 -130 483.235 -130 481.875 C-124.21893567 477.24140591 -116.10955634 477.00033785 -109 475.875 C-108.24138672 475.75125 -107.48277344 475.6275 -106.70117188 475.5 C-97.01583643 473.94905387 -87.3638241 472.8563662 -77.57421875 472.265625 C-75.89866193 472.15720524 -74.22312489 472.04847933 -72.54760742 471.93945312 C-69.2216844 471.7240724 -65.89711368 471.55308587 -62.56762695 471.40429688 C-54.75908136 471.20043028 -54.75908136 471.20043028 -47.72094727 468.31933594 C-46.2495852 466.57478339 -45.1314965 464.85016115 -44 462.875 C-41.83984375 460.984375 -41.83984375 460.984375 -39.9375 459.625 C-38.92816406 458.89796875 -38.92816406 458.89796875 -37.8984375 458.15625 C-36.32149675 457.09197723 -34.69692091 456.09869757 -33.0625 455.125 C-30.86104578 454.04135874 -30.86104578 454.04135874 -30 451.875 C-31.00160156 451.77058594 -32.00320313 451.66617187 -33.03515625 451.55859375 C-37.09521733 450.97072543 -40.70693473 449.60556286 -44.4375 447.9375 C-45.46967651 447.47670044 -45.46967651 447.47670044 -46.52270508 447.0065918 C-74.20118435 434.24424403 -91.64046536 413.98279362 -102.61328125 385.81640625 C-108.78528796 368.97564507 -109.61378167 347.90772393 -104 330.875 C-103.70996094 329.95243408 -103.70996094 329.95243408 -103.4140625 329.01123047 C-97.30480548 309.85852116 -85.96825022 295.29306157 -70.6796875 282.3984375 C-68.89297056 280.96266985 -68.89297056 280.96266985 -68 278.875 C-68.56589844 278.74480469 -69.13179688 278.61460937 -69.71484375 278.48046875 C-82.34163676 275.13490821 -93.15072599 268.24124094 -103 259.875 C-103.969375 259.11316406 -104.93875 258.35132813 -105.9375 257.56640625 C-109.35767591 254.71544339 -111.9937037 251.40142425 -114.6875 247.875 C-115.15994141 247.27171875 -115.63238281 246.6684375 -116.11914062 246.046875 C-118.16395 243.40841129 -119.94396613 240.98468332 -121.46875 238 C-122.84786108 235.62241585 -122.84786108 235.62241585 -125.64453125 235.125 C-126.68996094 235.0425 -127.73539062 234.96 -128.8125 234.875 C-147.29994432 232.65156572 -162.24343651 223.40875565 -174.0625 209.25 C-176.93594251 205.41199815 -177.8984937 202.64579595 -178 197.875 C-174.76918114 194.98788528 -172.72176435 194.55585742 -168.4375 194.5 C-161.4750105 194.1439636 -155.13765344 192.51160198 -148.44897461 190.60205078 C-147.67046143 190.38145996 -146.89194824 190.16086914 -146.08984375 189.93359375 C-145.39753662 189.73048584 -144.70522949 189.52737793 -143.99194336 189.31811523 C-142 188.875 -142 188.875 -138 188.875 C-138.02094727 188.24746826 -138.04189453 187.61993652 -138.06347656 186.97338867 C-139.12199697 150.19650409 -127.8304506 118.5322074 -102.58203125 91.4609375 C-87.93560551 76.79235378 -69.4132348 65.90504184 -50 58.875 C-51.68102865 57.75431424 -53.37016602 56.64485933 -55.0859375 55.578125 C-62.1470076 51.09567095 -66.6458095 46.71390204 -70 38.875 C-70.79852434 33.13676695 -71.37411261 26.80738464 -68.86328125 21.44921875 C-65.18863274 16.94512202 -60.58065154 14.22179458 -54.7734375 13.44140625 C-41.34222607 13.42596808 -31.92503766 17.21887125 -21 24.875 C-21.2165625 24.35292969 -21.433125 23.83085937 -21.65625 23.29296875 C-23.95344111 17.22030152 -25.13088413 11.35188184 -24 4.875 C-18.01699552 -2.99737431 -8.98734411 -2.48027354 0 0 Z " fill="#010101" transform="translate(472,284.125)"/>
<path d="M0 0 C0.94746094 0.4021875 1.89492188 0.804375 2.87109375 1.21875 C10.56085656 4.74526543 16.75347759 9.3351738 23 15 C24.41152344 16.27037109 24.41152344 16.27037109 25.8515625 17.56640625 C37.16135524 28.26864814 45.77999177 41.34874237 46.46875 57.23681641 C46.70335148 73.75789277 40.62643267 85.27947426 29.27148438 97.08496094 C27.55337879 98.80924556 25.82714539 100.52546169 24.09375 102.234375 C23.16961304 103.15663879 22.24547607 104.07890259 21.29333496 105.02911377 C19.35488498 106.96300934 17.41170081 108.8919571 15.46435547 110.81689453 C12.99001161 113.2628809 10.52449515 115.71752857 8.06206512 118.17550278 C5.6799246 120.55244944 3.29314511 122.92470225 0.90625 125.296875 C0.03206421 126.16681091 -0.84212158 127.03674683 -1.74279785 127.93304443 C-5.42518434 131.57303414 -9.11564893 135.15419563 -13.04101562 138.53222656 C-17.67479479 142.52254592 -21.95005108 146.84342047 -26.25 151.1875 C-27.10754883 152.04883545 -27.96509766 152.9101709 -28.84863281 153.79760742 C-31.56820889 156.5293112 -34.284512 159.26423275 -37 162 C-40.58038026 165.60711851 -44.16415181 169.21081802 -47.75 172.8125 C-48.96284668 174.03779419 -48.96284668 174.03779419 -50.20019531 175.2878418 C-54.38453691 179.49003171 -58.65103176 183.50419979 -63.14624023 187.37109375 C-66.02789022 189.90321132 -68.71620746 192.61112322 -71.40625 195.34375 C-71.97525024 195.91653687 -72.54425049 196.48932373 -73.13049316 197.07946777 C-74.92282982 198.88385251 -76.71184316 200.6914736 -78.5 202.5 C-92.1544854 216.31002876 -92.1544854 216.31002876 -98.45214844 221.65722656 C-100.40653551 223.35267276 -102.13701895 225.2108181 -103.875 227.125 C-109.66716744 232.95097386 -116.05801359 235.66582611 -124 237.4375 C-134.39286755 239.82559152 -142.67611225 245.75873216 -148.7265625 254.4921875 C-153.75100381 262.51700608 -154.15204116 268.52578987 -153.78515625 277.76171875 C-153.66901891 283.72695508 -155.04455398 286.80753022 -159.0625 291.3125 C-161 293 -161 293 -163 293 C-163.11480713 292.23147705 -163.22961426 291.4629541 -163.34790039 290.67114258 C-169.64517734 249.38352462 -184.40359536 217.59394761 -213 187 C-212 184 -212 184 -209.8125 182.375 C-202.22498478 175.96776493 -198.70760481 166.79024029 -196.3359375 157.359375 C-193.48809791 146.17388456 -184.269207 139.11772742 -176.31640625 131.18359375 C-175.29167892 130.15819076 -174.26709989 129.13263954 -173.24266052 128.10694885 C-171.1069957 125.96981937 -168.96955792 123.83448391 -166.83081055 121.70043945 C-164.10991584 118.98524125 -161.3935369 116.26557667 -158.67848301 113.54453945 C-156.56716186 111.42957925 -154.45343325 109.31703793 -152.33900261 107.20518684 C-151.33728909 106.20413337 -150.33629823 105.20235615 -149.336092 104.19979668 C-140.60890437 95.45657882 -140.60890437 95.45657882 -135.99780273 91.50219727 C-131.3289802 87.4941341 -127.02471073 83.13744948 -122.69447327 78.76963806 C-121.18187668 77.24406023 -119.66598798 75.72181914 -118.14929199 74.20031738 C-114.93000888 70.96971047 -111.71469888 67.73516777 -108.5 64.5 C-104.7692435 60.74548873 -101.03679249 56.99269387 -97.30006409 53.24412537 C-95.82029444 51.75796311 -94.34361435 50.26878004 -92.86706543 48.77941895 C-88.28958072 44.18540101 -83.66582912 39.73957547 -78.74176025 35.51913452 C-76.21878726 33.31863916 -73.88086568 30.95724437 -71.5390625 28.56640625 C-70.56263927 27.57733645 -69.5860723 26.58840854 -68.609375 25.59960938 C-67.11805989 24.08361818 -65.62844958 22.56602736 -64.14160156 21.0456543 C-47.33866243 3.89010887 -47.33866243 3.89010887 -38.0625 0.0625 C-37.16660156 -0.31777344 -36.27070312 -0.69804687 -35.34765625 -1.08984375 C-24.9740299 -5.11156578 -10.1277544 -4.58615294 0 0 Z " fill="#030404" transform="translate(799,172)"/>
<path d="M0 0 C2.1377068 -0.00956148 4.27439006 -0.04052217 6.41186523 -0.07226562 C29.46895387 -0.24968321 49.6640649 7.77625905 66.87084961 23.24023438 C67.52827148 23.82675781 68.18569336 24.41328125 68.86303711 25.01757812 C79.7098505 35.26179077 88.26472221 50.73438357 91.87084961 65.24023438 C92.07323242 65.98144531 92.27561523 66.72265625 92.48413086 67.48632812 C95.33149082 79.90236713 95.43039532 94.72164773 91.52709961 106.86523438 C90.7902418 109.53195788 90.61244699 111.48168219 90.87084961 114.24023438 C92.18056018 116.25068721 92.18056018 116.25068721 94.08959961 117.98242188 C94.77538086 118.65660156 95.46116211 119.33078125 96.16772461 120.02539062 C96.89475586 120.71503906 97.62178711 121.4046875 98.37084961 122.11523438 C99.06694336 122.79714844 99.76303711 123.4790625 100.48022461 124.18164062 C105.66531919 129.2227048 110.99815062 134.12438673 116.63476562 138.65942383 C121.38313847 142.51225995 122.30610309 147.35930421 123.85913086 153.09960938 C125.19119298 157.23465934 127.17744484 159.87347841 129.87084961 163.24023438 C129.87084961 163.90023437 129.87084961 164.56023437 129.87084961 165.24023438 C127.62668662 166.584332 125.37642165 167.91553333 123.12084961 169.24023438 C122.16952148 169.81257813 122.16952148 169.81257813 121.19897461 170.39648438 C117.73113485 172.4193909 115.97736707 173.24023438 111.87084961 173.24023438 C109.68725586 171.37695313 109.68725586 171.37695313 107.43334961 168.92773438 C103.76484331 164.96574757 100.6521196 161.68379899 95.15209961 160.80664062 C89.29222512 160.79321125 89.29222512 160.79321125 83.87084961 162.80273438 C80.70342783 166.66302967 79.13873213 170.3650567 78.43334961 175.30273438 C79.52137407 182.60804146 85.47695816 186.81514867 90.87084961 191.24023438 C89.62054392 194.99115145 87.69132437 196.48835485 84.87084961 199.24023438 C83.28395887 201.09463698 81.72106253 202.96985309 80.18334961 204.86523438 C79.41635742 205.80625 78.64936523 206.74726563 77.85913086 207.71679688 C75.79594788 210.26673357 75.79594788 210.26673357 73.87084961 213.24023438 C69.87999873 211.64188798 67.23557884 208.84416493 64.29272461 205.82226562 C63.76245667 205.28679611 63.23218872 204.7513266 62.68585205 204.19963074 C60.99267905 202.48869686 59.30632752 200.77124669 57.62084961 199.05273438 C55.4107574 196.80581797 53.19743473 194.56215873 50.98022461 192.32226562 C50.18171082 191.51536789 50.18171082 191.51536789 49.36706543 190.69216919 C45.86233001 187.17400018 42.26552099 183.81524505 38.46557617 180.61401367 C36.87084961 179.24023438 36.87084961 179.24023438 35.3972168 177.52075195 C34.64166504 176.88689575 34.64166504 176.88689575 33.87084961 176.24023438 C29.78930371 176.90934026 25.92279477 177.94849492 21.94116211 179.05273438 C-0.22713664 184.58151872 -23.10532767 181.47161809 -43.13305664 170.61132812 C-65.41934141 156.94790176 -79.08102394 137.96766607 -85.75805664 112.87695312 C-87.28952371 106.12111967 -87.4289486 99.52058613 -87.37915039 92.61523438 C-87.38688477 91.535 -87.39461914 90.45476562 -87.40258789 89.34179688 C-87.36920216 75.65364659 -87.36920216 75.65364659 -83.81665039 70.24023438 C-81.44769372 68.8364082 -79.85012114 68.97966578 -77.12915039 69.24023438 C-75.29093933 70.48390198 -75.29093933 70.48390198 -73.56738281 72.25024414 C-72.91287643 72.90835587 -72.25837006 73.56646759 -71.58403015 74.24452209 C-70.89122452 74.96627121 -70.19841888 75.68802032 -69.48461914 76.43164062 C-68.75600174 77.16970444 -68.02738434 77.90776825 -67.27668762 78.66819763 C-64.94461824 81.03488017 -62.63021707 83.41797363 -60.31665039 85.80273438 C-58.01052895 88.15906761 -55.70085802 90.5118325 -53.38874817 92.86228943 C-51.95196183 94.32514718 -50.51915391 95.79192736 -49.09111023 97.26332092 C-45.19502501 101.25454863 -41.19881356 105.01583376 -36.93208313 108.60997009 C-35.01251212 110.3457021 -33.36689651 112.20768368 -31.69165039 114.17773438 C-29.09710373 116.79581434 -27.45925715 117.73038647 -23.75415039 117.86523438 C-20.72419899 117.55079596 -18.01991319 116.9786258 -15.14477539 115.98242188 C-14.36376465 115.71349121 -13.58275391 115.44456055 -12.77807617 115.16748047 C-11.90393066 114.86148926 -11.02978516 114.55549805 -10.12915039 114.24023438 C-9.13254395 113.89686035 -8.1359375 113.55348633 -7.10913086 113.19970703 C-3.81908457 112.06048052 -0.53629218 110.90202055 2.74584961 109.74023438 C3.87249023 109.34964844 4.99913086 108.9590625 6.15991211 108.55664062 C7.23756836 108.17378906 8.31522461 107.7909375 9.42553711 107.39648438 C10.39990723 107.05423828 11.37427734 106.71199219 12.37817383 106.359375 C15.7601032 104.84098477 17.39357562 103.40915119 18.79272461 99.98242188 C20.00166311 95.80460268 20.00166311 95.80460268 21.19067383 91.62109375 C22.00740926 88.76222659 22.86438888 85.9162774 23.71850586 83.06835938 C24.37455991 80.83430891 25.02949772 78.59993035 25.68334961 76.36523438 C26.00980469 75.2835498 26.33625977 74.20186523 26.67260742 73.08740234 C28.98203634 65.22917547 28.98203634 65.22917547 27.87084961 57.24023438 C25.91729581 54.52721529 25.91729581 54.52721529 23.30834961 52.24023438 C22.48206055 51.45648438 21.65577148 50.67273438 20.80444336 49.86523438 C18.60666986 47.89865143 16.39260699 45.96069817 14.16235352 44.03173828 C7.85786032 38.51667095 1.92252185 32.62941557 -4.03222656 26.7421875 C-5.48182473 25.31438657 -6.93766427 23.89289693 -8.39941406 22.47753906 C-10.52305381 20.42046293 -12.62664105 18.34467494 -14.72680664 16.26367188 C-15.38495865 15.63335052 -16.04311066 15.00302917 -16.72120667 14.35360718 C-21.12492891 9.92934668 -21.12492891 9.92934668 -21.14648438 6.41064453 C-19.89473607 3.74012799 -18.65670508 2.72703125 -16.12915039 1.24023438 C-10.95435822 -0.48469635 -5.41726311 0.01460015 0 0 Z " fill="#020202" transform="translate(272.129150390625,176.759765625)"/>
<path d="M0 0 C3.73324262 1.55287407 6.06516525 3.8485884 8.87890625 6.71875 C10.26045898 8.11673828 10.26045898 8.11673828 11.66992188 9.54296875 C12.63447062 10.52829743 13.59865973 11.51397829 14.5625 12.5 C16.45638765 14.43033905 18.35438323 16.3564355 20.25390625 18.28125 C21.09252197 19.13783203 21.9311377 19.99441406 22.79516602 20.87695312 C25.00841159 23.13384095 25.00841159 23.13384095 28 25 C32.64208253 24.60716584 37.04213868 23.52175816 41.5625 22.4375 C63.76668289 17.6796648 87.4437778 21.46006708 107 33 C126.52240422 46.14303591 140.20621622 64.02580537 146 87 C146.25487183 87.92582886 146.25487183 87.92582886 146.51489258 88.87036133 C148.17320721 95.40233182 148.33269105 101.72195614 148.3125 108.4375 C148.32861328 109.50548828 148.34472656 110.57347656 148.36132812 111.67382812 C148.365416 118.36567361 147.95782818 124.88038204 145 131 C142 133 142 133 139.11700439 132.89501953 C135.38627168 131.82377348 133.83758386 130.4372947 131.12792969 127.6796875 C129.75686066 126.30321045 129.75686066 126.30321045 128.35809326 124.89892578 C127.37915957 123.89113919 126.40042483 122.88315931 125.421875 121.875 C124.40508293 120.8463331 123.38709932 119.81884273 122.36798096 118.79248047 C119.69450466 116.09430571 117.03595899 113.38189733 114.3807373 110.66577148 C110.62949858 106.83394248 106.85816183 103.02187454 103.08917236 99.20751953 C101.0829695 97.1770594 99.08240783 95.14128182 97.08612061 93.10107422 C95.73396454 91.72459717 95.73396454 91.72459717 94.35449219 90.3203125 C93.55984558 89.50836426 92.76519897 88.69641602 91.94647217 87.85986328 C88.56217868 84.62615499 85.99477902 84.74451512 81.49658203 84.79931641 C77.42543744 85.12656859 73.77790216 86.35375832 69.9375 87.6875 C68.28019311 88.24031896 66.6226362 88.79238887 64.96484375 89.34375 C64.13968262 89.6221875 63.31452148 89.900625 62.46435547 90.1875 C60.09233319 90.96955767 57.71162794 91.69881342 55.31640625 92.40625 C54.22307983 92.731698 54.22307983 92.731698 53.10766602 93.0637207 C51.73630185 93.46958604 50.36315424 93.86948905 48.98803711 94.26245117 C45.51440386 95.30986699 43.30310565 96.19160692 41 99 C40.02361708 101.19706614 40.02361708 101.19706614 39.31640625 103.68359375 C39.03031494 104.60575684 38.74422363 105.52791992 38.44946289 106.47802734 C38.01041626 107.94296631 38.01041626 107.94296631 37.5625 109.4375 C36.94885819 111.43909097 36.33428213 113.44039578 35.71875 115.44140625 C35.42484375 116.40320801 35.1309375 117.36500977 34.828125 118.35595703 C33.82351874 121.56347054 32.70188947 124.71319422 31.5625 127.875 C30.00846582 132.6325257 29.08697978 136.01988973 30 141 C34.72273525 147.70622142 41.27401465 153.31535081 47.125 159.01171875 C49.06849904 160.9204011 51.00854365 162.83258756 52.94921875 164.74414062 C55.98766153 167.73455463 59.0306126 170.72000995 62.08837891 173.69067383 C64.57977286 176.11192436 67.05634723 178.5474803 69.52362061 180.99329567 C70.91758638 182.36709325 72.32712042 183.72503587 73.73681641 185.08268738 C74.57519043 185.91738052 75.41356445 186.75207367 76.27734375 187.61206055 C77.02234131 188.34071823 77.76733887 189.06937592 78.53491211 189.82011414 C80 192 80 192 79.93188477 194.66487122 C79 197 79 197 75.8125 198.75 C68.5035281 201.58779496 60.64334027 201.21629485 52.9375 201.25 C51.78572266 201.270625 50.63394531 201.29125 49.44726562 201.3125 C26.74077048 201.41437996 6.42452741 191.37355319 -10 176 C-18.19582124 167.64562865 -23.28236928 158.58725718 -28 148 C-28.53367187 146.80246094 -29.06734375 145.60492187 -29.6171875 144.37109375 C-34.36925275 132.78625672 -35.89020835 119.41218966 -34 107 C-32.31144074 102.96792516 -29.85773635 100.25901242 -27 97 C-8.11429427 67.52628429 -0.84547708 34.7068342 0 0 Z " fill="#020202" transform="translate(681,588)"/>
<path d="M0 0 C0.99 0.495 0.99 0.495 2 1 C1.67386719 1.71542969 1.34773437 2.43085937 1.01171875 3.16796875 C-2.85667308 11.98881501 -6.07739237 20.7681437 -6.05078125 30.5078125 C-6.02715208 42.53630608 -6.02715208 42.53630608 -8.71875 46.5859375 C-10.83632332 48.42822629 -13.02275477 50.05979967 -15.31201172 51.6796875 C-18.89272471 54.48045346 -21.96090431 57.87191527 -25.125 61.125 C-31.16545655 67.29078953 -37.44348805 73.02414306 -44.0625 78.5625 C-47.22893981 81.81315363 -48.97093758 85.64142217 -50.90478516 89.70922852 C-54.80565214 97.855279 -59.36634142 105.63296949 -63.85546875 113.46484375 C-65.73214705 116.74107875 -67.56228095 120.0273807 -69.30078125 123.37890625 C-69.63730713 124.013125 -69.97383301 124.64734375 -70.32055664 125.30078125 C-71.17108376 126.91291776 -72.00070572 128.5360387 -72.828125 130.16015625 C-78.40584059 137.45332034 -88.04326572 141.44270524 -95.87680054 145.97781372 C-106.6463723 152.21399249 -117.32260549 158.56662015 -127.82910156 165.24047852 C-128.62155273 165.73990967 -129.41400391 166.23934082 -130.23046875 166.75390625 C-131.25756958 167.40854858 -131.25756958 167.40854858 -132.30541992 168.07641602 C-134 169 -134 169 -136 169 C-137.19921875 167.77734375 -137.19921875 167.77734375 -138.6875 165.9375 C-144.66763621 158.87122794 -151.4184 152.499092 -158 146 C-156.16950271 142.2284829 -153.95894816 138.78777196 -151.625 135.3125 C-151.18438232 134.65386963 -150.74376465 133.99523926 -150.28979492 133.31665039 C-146.55427349 127.76271765 -142.7241514 122.27785216 -138.80615234 116.85107422 C-135.86837285 112.75629569 -133.10731011 108.60480198 -130.46484375 104.3125 C-123.33820659 92.91574687 -117.78403287 85.41105254 -105.00292969 80.765625 C-101.60836992 79.46804584 -98.4174059 77.78240406 -95.1875 76.125 C-93.87378814 75.46987112 -92.55998417 74.81492694 -91.24609375 74.16015625 C-88.11376106 72.58019601 -85.00833867 70.95448499 -81.91015625 69.30859375 C-80.62298706 68.62482666 -80.62298706 68.62482666 -79.30981445 67.92724609 C-77.63553992 67.03461904 -75.96340319 66.13796758 -74.29370117 65.23681641 C-73.53162354 64.82995605 -72.7695459 64.4230957 -71.984375 64.00390625 C-71.31116211 63.64111572 -70.63794922 63.2783252 -69.94433594 62.90454102 C-67.9767774 61.98919642 -66.10097867 61.51458713 -64 61 C-62.11330505 59.69423497 -62.11330505 59.69423497 -60.3125 58 C-59.61769531 57.3709375 -58.92289062 56.741875 -58.20703125 56.09375 C-55.14248594 53.18649994 -52.17733288 50.18657974 -49.2109375 47.1796875 C-47.24107189 45.23766452 -45.22846367 43.41938329 -43.125 41.625 C-39.7544219 38.73785143 -36.61497164 35.65751863 -33.5 32.5 C-30.48769221 29.44682658 -27.46451074 26.45927568 -24.1875 23.6875 C-19.52809318 19.72410416 -15.28838388 15.33937079 -11.01049805 10.97338867 C-7.81906088 7.73540692 -4.5633535 4.83374547 -1 2 C-0.67 1.34 -0.34 0.68 0 0 Z " fill="#020303" transform="translate(363,598)"/>
<path d="M0 0 C5.01353388 1.26891211 8.70258147 3.96011586 12.20703125 7.68359375 C14.17330425 13.33662861 14.24993551 19.18835679 11.83203125 24.68359375 C9.56186017 27.1699716 7.26427096 29.32205502 4.74267578 31.54248047 C-0.51543405 36.24983662 -5.52795386 41.17583403 -10.49515152 46.18561172 C-12.03308019 47.73658517 -13.57435735 49.284166 -15.11642456 50.83102417 C-18.38647656 54.11236359 -21.65252905 57.3976652 -24.91796875 60.68359375 C-28.71561496 64.50501196 -32.51497599 68.32469405 -36.3185997 72.14016342 C-37.82275062 73.65070346 -39.32381267 75.16426454 -40.82473755 76.67800903 C-45.35394741 81.22333865 -49.9258928 85.61214438 -54.79684448 89.787323 C-58.86879441 93.40058793 -62.65120234 97.31704457 -66.48046875 101.18359375 C-67.38240967 102.08932129 -68.28435059 102.99504883 -69.21362305 103.92822266 C-72.07585439 106.80258944 -74.93492677 109.68006315 -77.79296875 112.55859375 C-81.56071208 116.35334713 -85.3321242 120.14440756 -89.10546875 123.93359375 C-90.38393677 125.22450928 -90.38393677 125.22450928 -91.68823242 126.54150391 C-96.55643036 131.42944624 -101.54129991 136.0864639 -106.79296875 140.55859375 C-108.08572416 141.68234249 -109.37753679 142.80717769 -110.66796875 143.93359375 C-115.00357105 147.70455947 -118.23789323 148.01408965 -123.95703125 147.9765625 C-128.42872261 147.31751157 -131.0478686 145.04799219 -133.79296875 141.55859375 C-136.67747279 136.7971864 -136.94620519 131.94513913 -135.79296875 126.55859375 C-132.82568417 121.86679319 -128.83065553 118.36063815 -124.69604492 114.7041626 C-118.75164074 109.42490545 -113.05712457 103.94814229 -107.46117783 98.30196762 C-105.99046733 96.81819544 -104.51639448 95.33783182 -103.04153442 93.85818481 C-99.91413737 90.71950849 -96.79074482 87.5768668 -93.66796875 84.43359375 C-90.0355403 80.77738188 -86.40138952 77.12291466 -82.76297379 73.47266006 C-81.32529655 72.02859976 -79.8907126 70.58151745 -78.45626831 69.13424683 C-74.66626289 65.33014433 -70.88721543 61.57227431 -66.80883789 58.07666016 C-62.13791266 54.0684636 -57.84184658 49.70454345 -53.51800728 45.32823181 C-52.00972987 43.80226292 -50.49767985 42.28012138 -48.98460388 40.75891113 C-44.68871322 36.4388283 -40.39860622 32.11303638 -36.11303711 27.78271484 C-33.47569221 25.11835703 -30.83330623 22.45908193 -28.18791008 19.80271912 C-27.19139732 18.80006684 -26.19677557 17.79553093 -25.20422554 16.78895569 C-7.97254278 -0.68415866 -7.97254278 -0.68415866 0 0 Z " fill="#FBFBFB" transform="translate(783.79296875,214.44140625)"/>
<path d="M0 0 C3.71110749 0.62134468 5.30435981 1.62786975 7.77783203 4.46508789 C8.57712798 7.92870365 8.61942294 10.11793697 6.69189453 13.20336914 C4.82647516 15.4144119 2.8322913 17.42695978 0.77783203 19.46508789 C-0.32338347 20.58915302 -1.42356144 21.7142351 -2.52294922 22.84008789 C-11.8938391 32.36408035 -11.8938391 32.36408035 -16.84155273 36.58007812 C-21.75553716 40.86275463 -26.32473415 45.46051392 -30.90966797 50.09008789 C-31.81160889 50.99581543 -32.7135498 51.90154297 -33.64282227 52.8347168 C-36.5050536 55.70908358 -39.36412599 58.58655729 -42.22216797 61.46508789 C-45.98991129 65.25984127 -49.76132342 69.0509017 -53.53466797 72.84008789 C-54.81313599 74.13100342 -54.81313599 74.13100342 -56.11743164 75.44799805 C-59.6970351 79.04211964 -63.27723853 82.57206976 -67.13134766 85.87207031 C-71.94428109 90.00981829 -76.37634484 94.5226349 -80.83515167 99.03347206 C-82.39669013 100.61264919 -83.96195863 102.18804382 -85.52825928 103.76249695 C-89.97485958 108.233351 -94.41556441 112.71002826 -98.85205078 117.19091797 C-101.58025965 119.94591407 -104.3133256 122.69601383 -107.04943085 125.44316673 C-108.08633222 126.48626306 -109.12133392 127.53125144 -110.15436554 128.57818031 C-111.59462477 130.03767054 -113.04095401 131.49088195 -114.48876953 132.94287109 C-115.71832367 134.18361137 -115.71832367 134.18361137 -116.97271729 135.44941711 C-120.38769562 138.5094851 -122.1612655 139.48370021 -126.78466797 139.40258789 C-130.22216797 138.46508789 -130.22216797 138.46508789 -132.22216797 136.27758789 C-133.50361719 132.67351196 -133.31928719 131.14440756 -132.22216797 127.46508789 C-130.27608766 124.83114288 -127.97713962 122.61429698 -125.62451172 120.34399414 C-124.62297813 119.34951515 -124.62297813 119.34951515 -123.60121155 118.33494568 C-121.46547813 116.22051471 -119.31276978 114.12431443 -117.15966797 112.02758789 C-115.73735253 110.62179029 -114.31611659 109.21489963 -112.89599609 107.80688477 C-102.39439975 97.43985881 -102.39439975 97.43985881 -97.52124023 93.27734375 C-92.30398663 88.75508359 -87.48103008 83.83549733 -82.62026978 78.93835449 C-80.87241875 77.17756289 -79.12130825 75.42006925 -77.36938477 73.66333008 C-73.65080446 69.93340664 -69.93618593 66.19955352 -66.22216797 62.46508789 C-61.91315368 58.13235016 -57.6024642 53.80130636 -53.2875061 49.4744873 C-51.57507627 47.75564745 -49.86572285 46.03378977 -48.15649414 44.31176758 C-43.23977681 39.37231925 -38.28958246 34.54421425 -32.98614502 30.01535034 C-30.00023579 27.39119887 -27.27562123 24.52461348 -24.52685547 21.65649414 C-23.30494825 20.40250863 -22.08226985 19.14927418 -20.85888672 17.89672852 C-18.96443109 15.95265266 -17.07510456 14.00453449 -15.19824219 12.04345703 C-13.36315406 10.12974941 -11.5095874 8.23569342 -9.65185547 6.34399414 C-9.0954538 5.7534877 -8.53905212 5.16298126 -7.96578979 4.55458069 C-5.33612037 1.90679527 -3.74544962 0.54061839 0 0 Z " fill="#F8F8F6" transform="translate(757.22216796875,190.534912109375)"/>
<path d="M0 0 C2.4375 1 2.4375 1 4 3 C4.89885747 9.54570504 4.89885747 9.54570504 2.84307861 12.87182617 C1.15119108 14.80695758 -0.62497975 16.57714007 -2.4921875 18.34375 C-3.1533255 18.99831177 -3.8144635 19.65287354 -4.49563599 20.32727051 C-5.89037965 21.7012333 -7.29458912 23.06564523 -8.70751953 24.42089844 C-10.8784032 26.50326444 -13.02110423 28.6115558 -15.16015625 30.7265625 C-16.51929287 32.05886497 -17.8799195 33.3896495 -19.2421875 34.71875 C-19.88807831 35.34986694 -20.53396912 35.98098389 -21.19943237 36.63122559 C-25.76331517 41 -25.76331517 41 -28 41 C-28 41.66 -28 42.32 -28 43 C-29.40969849 44.38722229 -29.40969849 44.38722229 -31.39501953 46.02172852 C-36.42944103 50.30580035 -41.03910918 54.94927949 -45.6796875 59.65234375 C-47.51289113 61.4981757 -49.34622826 63.34387507 -51.1796875 65.18945312 C-54.04608607 68.07967626 -56.90989702 70.97244524 -59.77148438 73.86743164 C-62.54818106 76.67591704 -65.33271601 79.47656619 -68.1171875 82.27734375 C-68.97859344 83.15220932 -69.83999939 84.02707489 -70.72750854 84.92845154 C-71.52238678 85.72670853 -72.31726501 86.52496552 -73.13623047 87.34741211 C-73.8360202 88.05465927 -74.53580994 88.76190643 -75.25680542 89.49058533 C-77 91 -77 91 -79 91 C-79 91.66 -79 92.32 -79 93 C-80.24023438 94.21679688 -80.24023438 94.21679688 -82.09375 95.71875 C-86.21253134 99.22116442 -90.03627747 102.94888539 -93.84375 106.78125 C-94.46113037 107.40193359 -95.07851074 108.02261719 -95.71459961 108.66210938 C-97.6450308 110.60613689 -99.57294063 112.55263034 -101.5 114.5 C-117.95194229 131.12533792 -117.95194229 131.12533792 -124 136 C-124.66580078 136.55365234 -125.33160156 137.10730469 -126.01757812 137.67773438 C-128 139 -128 139 -131.0625 138.9375 C-134 138 -134 138 -135.875 136.375 C-137.45281363 133.04406011 -137.33902137 130.65714429 -137 127 C-135.19921875 124.38867188 -135.19921875 124.38867188 -132.6875 121.96875 C-131.77613281 121.07542969 -130.86476563 120.18210937 -129.92578125 119.26171875 C-128.95076451 118.34088774 -127.97550269 117.42031618 -127 116.5 C-126.06542969 115.58863281 -125.13085938 114.67726563 -124.16796875 113.73828125 C-120.29820379 109.98758598 -116.38565105 106.32469665 -112.296875 102.81445312 C-107.25576034 98.42198083 -102.5790878 93.68515201 -97.875 88.9375 C-96.9194063 87.97748625 -95.96350816 87.01777547 -95.00732422 86.05834961 C-92.0020245 83.04173631 -89.00070388 80.02118404 -86 77 C-82.51706989 73.49329849 -79.03243498 69.98832534 -75.54351807 66.48757935 C-74.16346867 65.1011466 -72.78652256 63.71162702 -71.40966797 62.32202148 C-67.7163888 58.61446507 -64.02877684 54.96068299 -60.05419922 51.55419922 C-55.30261638 47.47331606 -50.91825228 43.03089031 -46.5110817 38.58624649 C-44.97490979 37.03713259 -43.43547898 35.4913213 -41.89523315 33.94625854 C-38.63563594 30.67533853 -35.3800425 27.4004518 -32.125 24.125 C-28.32942736 20.30579625 -24.53221523 16.48825167 -20.73080063 12.67486191 C-19.21423759 11.15181846 -17.70071408 9.625798 -16.18728638 8.09963989 C-15.27228363 7.18133392 -14.35728088 6.26302795 -13.41455078 5.31689453 C-12.60817169 4.50527863 -11.8017926 3.69366272 -10.97097778 2.85745239 C-7.43874654 -0.47132758 -4.77941642 -0.32961493 0 0 Z " fill="#F8F8F6" transform="translate(817,248)"/>
<path d="M0 0 C11.23986731 9.52945272 21.74473333 19.61441354 32.125 30.0625 C33.47632686 31.4188546 34.82788772 32.7749761 36.1796875 34.13085938 C39.45582527 37.41789555 42.72879311 40.70805696 46 44 C39.44836457 50.87760526 28.01833153 55.38729168 18.57820129 56.21142578 C15.45256221 55.95510728 14.66060252 55.2713715 12.49487305 53.0625 C11.85458664 52.42183594 11.21430023 51.78117188 10.55461121 51.12109375 C9.8804567 50.42113281 9.20630219 49.72117187 8.51171875 49 C7.80852005 48.28972656 7.10532135 47.57945312 6.3808136 46.84765625 C4.13770925 44.57656552 1.91260911 42.28871108 -0.3125 40 C-1.83022597 38.45719701 -3.34909308 36.91551571 -4.86914062 35.375 C-8.59276588 31.59624894 -12.30175592 27.80358607 -16 24 C-14.4237263 20.71019766 -12.6023413 18.17410379 -10.25 15.375 C-6.29381396 10.52361857 -3.06173973 5.45082452 0 0 Z " fill="#050505" transform="translate(622,531)"/>
<path d="M0 0 C1.72945653 0.14235457 3.45855654 0.28904382 5.1875 0.4375 C6.63189453 0.55931641 6.63189453 0.55931641 8.10546875 0.68359375 C11 1 11 1 13.34375 1.5 C16.98641384 2.1856779 20.61566536 2.36097461 24.3125 2.5625 C25.05306641 2.60568359 25.79363281 2.64886719 26.55664062 2.69335938 C28.37091464 2.79870432 30.1854355 2.89978316 32 3 C31.02180976 4.31322788 30.0424189 5.62556152 29.0625 6.9375 C28.24458984 8.03384766 28.24458984 8.03384766 27.41015625 9.15234375 C26 11 26 11 25 12 C23.43827255 12.08685603 21.87270656 12.10702219 20.30859375 12.09765625 C19.36435547 12.09443359 18.42011719 12.09121094 17.44726562 12.08789062 C16.45404297 12.07951172 15.46082031 12.07113281 14.4375 12.0625 C13.44041016 12.05798828 12.44332031 12.05347656 11.41601562 12.04882812 C8.94395151 12.03700007 6.47200482 12.02051849 4 12 C2.66666667 8 1.33333333 4 0 0 Z " fill="#F5F3F1" transform="translate(463,742)"/>
<path d="M0 0 C0.66 0.33 1.32 0.66 2 1 C0.02102181 3.16903249 -1.97949718 5.30772053 -4 7.4375 C-4.55300781 8.04916016 -5.10601562 8.66082031 -5.67578125 9.29101562 C-9.23484586 12.99326099 -11.74577647 14.75409882 -16.9296875 15.00366211 C-17.95449219 15.00184937 -17.95449219 15.00184937 -19 15 C-20.05574219 15.02815796 -20.05574219 15.02815796 -21.1328125 15.05688477 C-23.25718651 15.09719959 -25.37547463 15.08807299 -27.5 15.0625 C-28.22703125 15.05798828 -28.9540625 15.05347656 -29.703125 15.04882812 C-31.46878681 15.03721193 -33.2344053 15.01928441 -35 15 C-35 14.67 -35 14.34 -35 14 C-34.33468262 13.97607178 -33.66936523 13.95214355 -32.98388672 13.92749023 C-29.94500135 13.79864319 -26.91120274 13.61857474 -23.875 13.4375 C-22.30492187 13.38239258 -22.30492187 13.38239258 -20.703125 13.32617188 C-14.97780769 13.0393342 -14.97780769 13.0393342 -10.03759766 10.45141602 C-8.45929709 8.64729377 -8.45929709 8.64729377 -7.22460938 6.76757812 C-5.2703905 3.94689538 -2.68389925 2.10877798 0 0 Z " fill="#434646" transform="translate(434,742)"/>
<path d="M0 0 C-1.65 0.33 -3.3 0.66 -5 1 C-5.33 2.98 -5.66 4.96 -6 7 C-7.32 6.34 -8.64 5.68 -10 5 C-9.01906046 2.54765115 -8.31296172 1.2190732 -6.125 -0.3125 C-3.64990694 -1.1132654 -2.41712366 -0.86325845 0 0 Z " fill="#333130" transform="translate(351,764)"/>
</svg>
